# xmcd CD database file
#
# Track frame offsets:
#	150
#	15350
#	29617
#	46168
#	59625
#	75769
#	91005
#	108191
#	124159
#	137868
#	151464
#	165814
#	183783
#	200172
#	215182
#	231733
#	246617
#
# Disc length: 3519 seconds
#
# Revision: 1
# Processed by: cddbd v1.5.1PL2 Copyright (c) Steve Scherf et al.
# Submitted via: CDex 1.51
#
DISCID=e60dbd11
DTITLE=Best Country 2006 - Premiere Vol.<1
DYEAR=2006
DGENRE=Country
TTITLE0=Rascall Flats - While You Loved Me
TTITLE1=Tracy Lawrence - Used To The Pain
TTITLE2=Bellamy Brothers - Crazy From The Heart
TTITLE3=Tim McGraw - Something Like That
TTITLE4=Toby Keith - She Ain't Hook On Me No More
TTITLE5=Terri Clark - She Didn't Have Time
TTITLE6=Anthony Smith - If That Ain't Country
TTITLE7=Alison Krauss - Find My Way Back To My Heart
TTITLE8=Ronnie Milsap - Don't You Ever Get Tired
TTITLE9=George Strait - Somwhere Down In Texas
TTITLE10=Irene Kelley - If I Had Any Strenght At All
TTITLE11=Mary Chapin Carpenter - He Thinks He'll Keep Her
TTITLE12=Montgomery Gentry - You Do Your Thing
TTITLE13=Blake Shelton - Goodby Time
TTITLE14=Martina McBride - Wild Angels
TTITLE15=John Conlee - Friday Night Blues
TTITLE16=Alison Krauss - Goodbye Is All We Have
EXTD=YEAR: 2006
EXTT0=
EXTT1=
EXTT2=
EXTT3=
EXTT4=
EXTT5=
EXTT6=
EXTT7=
EXTT8=
EXTT9=
EXTT10=
EXTT11=
EXTT12=
EXTT13=
EXTT14=
EXTT15=
EXTT16=
PLAYORDER=
